name rise30.9205peak61.366fall85.3838.mot
datacolumns 19
datarows 32
range 4.22998200000000 4.28164800000000
endheader
time	ground_force1_vx	ground_force1_vy	ground_force1_vz	ground_force1_px	ground_force1_py	ground_force1_pz	ground_force2_vx	ground_force2_vy	ground_force2_vz	ground_force2_px	ground_force2_py	ground_force2_pz	ground_torque1_x	ground_torque1_y	ground_torque1_z	ground_torque2_x	ground_torque2_y	ground_torque2_z	
4.22998200000000	-10.51574900000000	41.51387500000000	-7.99327900000000	0.36331500000000	0.00000000000000	0.09487900000000	-54.85760100000000	801.07756300000005	-49.55073800000000	0.13575400000000	0.00000000000000	-0.07860600000000	0.00000000000000	-5.19522700000000	0.00000000000000	0.00000000000000	-20.54739600000000	0.00000000000000	
4.23165000000000	-11.58955100000000	48.42440200000000	-8.98205500000000	0.36726700000000	0.00000000000000	0.09551800000000	-55.57487200000000	798.60711300000003	-49.21659700000000	0.13475900000000	0.00000000000000	-0.07857100000000	0.00000000000000	-5.90445600000000	0.00000000000000	0.00000000000000	-20.46640600000000	0.00000000000000	
4.23331900000000	-12.48131300000000	55.36425700000000	-9.87858400000000	0.37097200000000	0.00000000000000	0.09610000000000	-56.29867200000000	796.04166899999996	-48.86661700000000	0.13377300000000	0.00000000000000	-0.07853400000000	0.00000000000000	-6.56901800000000	0.00000000000000	0.00000000000000	-20.38585300000000	0.00000000000000	
4.23498200000000	-13.16319300000000	62.24075900000000	-10.66186500000000	0.37445700000000	0.00000000000000	0.09663300000000	-57.02854300000000	793.37920799999995	-48.50063100000000	0.13279600000000	0.00000000000000	-0.07849600000000	0.00000000000000	-7.17439600000000	0.00000000000000	0.00000000000000	-20.30574000000000	0.00000000000000	
4.23664800000000	-13.61862500000000	68.98588300000000	-11.31808900000000	0.37774400000000	0.00000000000000	0.09712500000000	-57.76397000000000	790.61759500000005	-48.11847800000000	0.13182700000000	0.00000000000000	-0.07845700000000	0.00000000000000	-7.71041900000000	0.00000000000000	0.00000000000000	-20.22605400000000	0.00000000000000	
4.23832200000000	-13.84217900000000	75.55815500000000	-11.84071800000000	0.38085100000000	0.00000000000000	0.09758100000000	-58.50438100000000	787.75458600000002	-47.72001100000000	0.13086800000000	0.00000000000000	-0.07841700000000	0.00000000000000	-8.17145200000000	0.00000000000000	0.00000000000000	-20.14677500000000	0.00000000000000	
4.23998900000000	-13.83853500000000	81.94204499999999	-12.22996500000000	0.38379500000000	0.00000000000000	0.09800600000000	-59.24914300000000	784.78783399999998	-47.30509900000000	0.12991900000000	0.00000000000000	-0.07837500000000	0.00000000000000	-8.55616800000000	0.00000000000000	0.00000000000000	-20.06787000000000	0.00000000000000	
4.24164900000000	-13.62080100000000	88.14532900000000	-12.49180000000000	0.38658900000000	0.00000000000000	0.09840300000000	-59.99756300000000	781.71489499999996	-46.87362200000000	0.12897900000000	0.00000000000000	-0.07833100000000	0.00000000000000	-8.86702200000000	0.00000000000000	0.00000000000000	-19.98929300000000	0.00000000000000	
4.24331700000000	-13.20843700000000	94.19498000000000	-12.63666300000000	0.38924300000000	0.00000000000000	0.09877500000000	-60.74888800000000	778.53323100000000	-46.42548100000000	0.12805000000000	0.00000000000000	-0.07828600000000	0.00000000000000	-9.10948300000000	0.00000000000000	0.00000000000000	-19.91098900000000	0.00000000000000	
4.24498900000000	-12.62500400000000	100.13218400000000	-12.67803100000000	0.39176900000000	0.00000000000000	0.09912600000000	-61.50230300000000	775.24021500000003	-45.96059300000000	0.12713200000000	0.00000000000000	-0.07824000000000	0.00000000000000	-9.29116700000000	0.00000000000000	0.00000000000000	-19.83289100000000	0.00000000000000	
4.24664900000000	-11.89598000000000	106.00706200000000	-12.63098500000000	0.39417400000000	0.00000000000000	0.09945700000000	-62.25693100000000	771.83314600000006	-45.47889800000000	0.12622400000000	0.00000000000000	-0.07819100000000	0.00000000000000	-9.42092500000000	0.00000000000000	0.00000000000000	-19.75492100000000	0.00000000000000	
4.24832300000000	-11.04678500000000	111.87354999999999	-12.51089400000000	0.39646600000000	0.00000000000000	0.09977100000000	-63.01183400000000	768.30924900000002	-44.98035600000000	0.12532700000000	0.00000000000000	-0.07814100000000	0.00000000000000	-9.50800100000000	0.00000000000000	0.00000000000000	-19.67699000000000	0.00000000000000	
4.24998300000000	-10.10115000000000	117.78484400000001	-12.33230800000000	0.39865200000000	0.00000000000000	0.10007000000000	-63.76601000000000	764.66568600000005	-44.46495500000000	0.12444100000000	0.00000000000000	-0.07809000000000	0.00000000000000	-9.56128400000000	0.00000000000000	0.00000000000000	-19.59899800000000	0.00000000000000	
4.25164900000000	-9.07989700000000	123.78965599999999	-12.10809300000000	0.40073800000000	0.00000000000000	0.10035400000000	-64.51839900000000	760.89956600000005	-43.93270400000000	0.12356600000000	0.00000000000000	-0.07803600000000	0.00000000000000	-9.58873000000000	0.00000000000000	0.00000000000000	-19.52083500000000	0.00000000000000	
4.25332200000000	-8.00014900000000	129.92943099999999	-11.84885500000000	0.40272900000000	0.00000000000000	0.10062600000000	-65.26787700000000	757.00795500000004	-43.38364400000000	0.12270300000000	0.00000000000000	-0.07798100000000	0.00000000000000	-9.59694500000000	0.00000000000000	0.00000000000000	-19.44237900000000	0.00000000000000	
4.25498600000000	-6.87495600000000	136.23656500000001	-11.56262700000000	0.40463000000000	0.00000000000000	0.10088600000000	-66.01325900000001	752.98788700000000	-42.81784300000000	0.12185000000000	0.00000000000000	-0.07792300000000	0.00000000000000	-9.59094400000000	0.00000000000000	0.00000000000000	-19.36350100000000	0.00000000000000	
4.25664900000000	-5.71329400000000	142.73358600000000	-11.25481000000000	0.40644400000000	0.00000000000000	0.10113500000000	-66.75330300000000	748.83637399999998	-42.23539900000000	0.12101000000000	0.00000000000000	-0.07786400000000	0.00000000000000	-9.57407500000000	0.00000000000000	0.00000000000000	-19.28406100000000	0.00000000000000	
4.25832300000000	-4.52036400000000	149.43317800000000	-10.92831400000000	0.40817600000000	0.00000000000000	0.10137400000000	-67.48670600000000	744.55042100000003	-41.63644500000000	0.12018000000000	0.00000000000000	-0.07780300000000	0.00000000000000	-9.54808400000000	0.00000000000000	0.00000000000000	-19.20390900000000	0.00000000000000	
4.25998400000000	-3.29811700000000	156.33889400000001	-10.58387000000000	0.40982800000000	0.00000000000000	0.10160400000000	-68.21211099999999	740.12703799999997	-41.02114600000000	0.11936300000000	0.00000000000000	-0.07774000000000	0.00000000000000	-9.51328100000000	0.00000000000000	0.00000000000000	-19.12288700000000	0.00000000000000	
4.26164900000000	-2.04593000000000	163.44637399999999	-10.22043400000000	0.41140400000000	0.00000000000000	0.10182600000000	-68.92810400000000	735.56325400000003	-40.38970100000000	0.11855700000000	0.00000000000000	-0.07767400000000	0.00000000000000	-9.46879600000000	0.00000000000000	0.00000000000000	-19.04082800000000	0.00000000000000	
4.26332100000000	-0.76134000000000	170.74489600000001	-9.83565900000000	0.41290700000000	0.00000000000000	0.10204000000000	-69.63321800000000	730.85613300000000	-39.74234600000000	0.11776200000000	0.00000000000000	-0.07760700000000	0.00000000000000	-9.41286500000000	0.00000000000000	0.00000000000000	-18.95755600000000	0.00000000000000	
4.26498100000000	0.55921400000000	178.21906400000000	-9.42637000000000	0.41433900000000	0.00000000000000	0.10224600000000	-70.32593799999999	726.00279399999999	-39.07935400000000	0.11697900000000	0.00000000000000	-0.07753800000000	0.00000000000000	-9.34314600000000	0.00000000000000	0.00000000000000	-18.87289100000000	0.00000000000000	
4.26665100000000	1.91970800000000	185.85049599999999	-8.98902100000000	0.41570100000000	0.00000000000000	0.10244600000000	-71.00469900000000	721.00042099999996	-38.40103300000000	0.11620800000000	0.00000000000000	-0.07746600000000	0.00000000000000	-9.25700900000000	0.00000000000000	0.00000000000000	-18.78664200000000	0.00000000000000	
4.26832400000000	3.32394200000000	193.61938799999999	-8.52009200000000	0.41699700000000	0.00000000000000	0.10263900000000	-71.66789300000001	715.84628699999996	-37.70773200000000	0.11544800000000	0.00000000000000	-0.07739200000000	0.00000000000000	-9.15180200000000	0.00000000000000	0.00000000000000	-18.69861300000000	0.00000000000000	
4.26998100000000	4.77507400000000	201.50585000000001	-8.01641000000000	0.41822800000000	0.00000000000000	0.10282600000000	-72.31386900000000	710.53777200000002	-36.99983600000000	0.11470000000000	0.00000000000000	-0.07731600000000	0.00000000000000	-9.02507500000000	0.00000000000000	0.00000000000000	-18.60860300000000	0.00000000000000	
4.27164900000000	6.27528200000000	209.49098000000001	-7.47539500000000	0.41939600000000	0.00000000000000	0.10300700000000	-72.94094100000000	705.07237899999996	-36.27776900000000	0.11396300000000	0.00000000000000	-0.07723700000000	0.00000000000000	-8.87474300000000	0.00000000000000	0.00000000000000	-18.51640300000000	0.00000000000000	
4.27331500000000	7.82556200000000	217.55763200000001	-6.89521000000000	0.42050100000000	0.00000000000000	0.10318300000000	-73.54738800000000	699.44775600000003	-35.54199200000000	0.11323800000000	0.00000000000000	-0.07715700000000	0.00000000000000	-8.69919900000000	0.00000000000000	0.00000000000000	-18.42180200000000	0.00000000000000	
4.27498600000000	9.42564200000000	225.69089000000000	-6.27484300000000	0.42154700000000	0.00000000000000	0.10335300000000	-74.13145799999999	693.66171799999995	-34.79300500000000	0.11252300000000	0.00000000000000	-0.07707400000000	0.00000000000000	-8.49737400000000	0.00000000000000	0.00000000000000	-18.32458400000000	0.00000000000000	
4.27665600000000	11.07401100000000	233.87827100000001	-5.61410600000000	0.42253300000000	0.00000000000000	0.10351800000000	-74.69137700000000	687.71225600000002	-34.03134600000000	0.11182100000000	0.00000000000000	-0.07698800000000	0.00000000000000	-8.26874700000000	0.00000000000000	0.00000000000000	-18.22452700000000	0.00000000000000	
4.27831900000000	12.76801800000000	242.10970100000000	-4.91358800000000	0.42346100000000	0.00000000000000	0.10367800000000	-75.22534500000000	681.59756800000002	-33.25758700000000	0.11112900000000	0.00000000000000	-0.07690000000000	0.00000000000000	-8.01332000000000	0.00000000000000	0.00000000000000	-18.12140900000000	0.00000000000000	
4.27998400000000	14.50403900000000	250.37730300000001	-4.17455900000000	0.42433200000000	0.00000000000000	0.10383400000000	-75.73155000000000	675.31606399999998	-32.47234000000000	0.11044900000000	0.00000000000000	-0.07681000000000	0.00000000000000	-7.73156000000000	0.00000000000000	0.00000000000000	-18.01500500000000	0.00000000000000	
4.28164800000000	16.27767700000000	258.67506200000003	-3.39884800000000	0.42514700000000	0.00000000000000	0.10398500000000	-76.20816499999999	668.86638800000003	-31.67625100000000	0.10977900000000	0.00000000000000	-0.07671700000000	0.00000000000000	-7.42432200000000	0.00000000000000	0.00000000000000	-17.90508700000000	0.00000000000000	
